<svg aria-roledescription="flowchart-v2" role="graphics-document document" viewBox="-8 -8 1896.3211669921875 591" style="max-width: 1896.3211669921875px;" xmlns="http://www.w3.org/2000/svg" width="100%" id="mermaidExample"><style>#mermaidExample{font-family:"trebuchet ms",verdana,arial,sans-serif;font-size:16px;fill:#333;}#mermaidExample .error-icon{fill:#552222;}#mermaidExample .error-text{fill:#552222;stroke:#552222;}#mermaidExample .edge-thickness-normal{stroke-width:2px;}#mermaidExample .edge-thickness-thick{stroke-width:3.5px;}#mermaidExample .edge-pattern-solid{stroke-dasharray:0;}#mermaidExample .edge-pattern-dashed{stroke-dasharray:3;}#mermaidExample .edge-pattern-dotted{stroke-dasharray:2;}#mermaidExample .marker{fill:#333333;stroke:#333333;}#mermaidExample .marker.cross{stroke:#333333;}#mermaidExample svg{font-family:"trebuchet ms",verdana,arial,sans-serif;font-size:16px;}#mermaidExample .label{font-family:"trebuchet ms",verdana,arial,sans-serif;color:#333;}#mermaidExample .cluster-label text{fill:#333;}#mermaidExample .cluster-label span,#mermaidExample p{color:#333;}#mermaidExample .label text,#mermaidExample span,#mermaidExample p{fill:#333;color:#333;}#mermaidExample .node rect,#mermaidExample .node circle,#mermaidExample .node ellipse,#mermaidExample .node polygon,#mermaidExample .node path{fill:#ECECFF;stroke:#9370DB;stroke-width:1px;}#mermaidExample .flowchart-label text{text-anchor:middle;}#mermaidExample .node .label{text-align:center;}#mermaidExample .node.clickable{cursor:pointer;}#mermaidExample .arrowheadPath{fill:#333333;}#mermaidExample .edgePath .path{stroke:#333333;stroke-width:2.0px;}#mermaidExample .flowchart-link{stroke:#333333;fill:none;}#mermaidExample .edgeLabel{background-color:#e8e8e8;text-align:center;}#mermaidExample .edgeLabel rect{opacity:0.5;background-color:#e8e8e8;fill:#e8e8e8;}#mermaidExample .labelBkg{background-color:rgba(232, 232, 232, 0.5);}#mermaidExample .cluster rect{fill:#ffffde;stroke:#aaaa33;stroke-width:1px;}#mermaidExample .cluster text{fill:#333;}#mermaidExample .cluster span,#mermaidExample p{color:#333;}#mermaidExample div.mermaidTooltip{position:absolute;text-align:center;max-width:200px;padding:2px;font-family:"trebuchet ms",verdana,arial,sans-serif;font-size:12px;background:hsl(80, 100%, 96.2745098039%);border:1px solid #aaaa33;border-radius:2px;pointer-events:none;z-index:100;}#mermaidExample .flowchartTitleText{text-anchor:middle;font-size:18px;fill:#333;}#mermaidExample :root{--mermaid-font-family:"trebuchet ms",verdana,arial,sans-serif;}</style><g><marker orient="auto" markerHeight="12" markerWidth="12" markerUnits="userSpaceOnUse" refY="5" refX="6" viewBox="0 0 10 10" class="marker flowchart" id="mermaidExample_flowchart-pointEnd"><path style="stroke-width: 1; stroke-dasharray: 1, 0;" class="arrowMarkerPath" d="M 0 0 L 10 5 L 0 10 z"></path></marker><marker orient="auto" markerHeight="12" markerWidth="12" markerUnits="userSpaceOnUse" refY="5" refX="4.5" viewBox="0 0 10 10" class="marker flowchart" id="mermaidExample_flowchart-pointStart"><path style="stroke-width: 1; stroke-dasharray: 1, 0;" class="arrowMarkerPath" d="M 0 5 L 10 10 L 10 0 z"></path></marker><marker orient="auto" markerHeight="11" markerWidth="11" markerUnits="userSpaceOnUse" refY="5" refX="11" viewBox="0 0 10 10" class="marker flowchart" id="mermaidExample_flowchart-circleEnd"><circle style="stroke-width: 1; stroke-dasharray: 1, 0;" class="arrowMarkerPath" r="5" cy="5" cx="5"></circle></marker><marker orient="auto" markerHeight="11" markerWidth="11" markerUnits="userSpaceOnUse" refY="5" refX="-1" viewBox="0 0 10 10" class="marker flowchart" id="mermaidExample_flowchart-circleStart"><circle style="stroke-width: 1; stroke-dasharray: 1, 0;" class="arrowMarkerPath" r="5" cy="5" cx="5"></circle></marker><marker orient="auto" markerHeight="11" markerWidth="11" markerUnits="userSpaceOnUse" refY="5.2" refX="12" viewBox="0 0 11 11" class="marker cross flowchart" id="mermaidExample_flowchart-crossEnd"><path style="stroke-width: 2; stroke-dasharray: 1, 0;" class="arrowMarkerPath" d="M 1,1 l 9,9 M 10,1 l -9,9"></path></marker><marker orient="auto" markerHeight="11" markerWidth="11" markerUnits="userSpaceOnUse" refY="5.2" refX="-1" viewBox="0 0 11 11" class="marker cross flowchart" id="mermaidExample_flowchart-crossStart"><path style="stroke-width: 2; stroke-dasharray: 1, 0;" class="arrowMarkerPath" d="M 1,1 l 9,9 M 10,1 l -9,9"></path></marker><g class="root"><g class="clusters"><g id="Depth_3" class="cluster default flowchart-label"><rect height="83.75" width="1130" y="407.5" x="287.7177333831787" ry="0" rx="0" style=""></rect><g transform="translate(852.7177333831787, 407.5)" class="cluster-label"><text style=""><tspan class="row" x="0" dy="1em" xml:space="preserve">Depth_3</tspan></text></g></g><g id="Depth_2" class="cluster default flowchart-label"><rect height="83.75" width="1636.9100761413574" y="255" x="118.4199047088623" ry="0" rx="0" style=""></rect><g transform="translate(936.874942779541, 255)" class="cluster-label"><text style=""><tspan class="row" x="0" dy="1em" xml:space="preserve">Depth_2</tspan></text></g></g><g id="Depth_1" class="cluster default flowchart-label"><rect height="83.75" width="1880.3211975097656" y="102.5" x="0" ry="0" rx="0" style=""></rect><g transform="translate(940.1605987548828, 102.5)" class="cluster-label"><text style=""><tspan class="row" x="0" dy="1em" xml:space="preserve">Depth_1</tspan></text></g></g></g><g class="edgePaths"><path marker-end="url(#mermaidExample_flowchart-pointEnd)" style="fill:none;" class="edge-thickness-normal edge-pattern-solid flowchart-link LS-Initial LE-D2R1" id="L-Initial-D2R1-0" d="M916.666,18.369L785.553,26.662C654.439,34.954,392.212,51.54,261.099,65.562C129.985,79.583,129.985,91.042,129.985,100.054C129.985,109.067,129.985,115.633,129.985,118.917L129.985,122.2"></path><path marker-end="url(#mermaidExample_flowchart-pointEnd)" style="fill:none;" class="edge-thickness-normal edge-pattern-solid flowchart-link LS-Initial LE-D2R2" id="L-Initial-D2R2-0" d="M916.666,25.601L897.478,32.689C878.291,39.776,839.916,53.95,820.728,66.767C801.541,79.583,801.541,91.042,801.541,100.054C801.541,109.067,801.541,115.633,801.541,118.917L801.541,122.2"></path><path marker-end="url(#mermaidExample_flowchart-pointEnd)" style="fill:none;" class="edge-thickness-normal edge-pattern-solid flowchart-link LS-Initial LE-D2R3" id="L-Initial-D2R3-0" d="M963.916,19.046L1052.945,27.226C1141.974,35.405,1320.032,51.765,1409.061,65.674C1498.09,79.583,1498.09,91.042,1498.09,100.054C1498.09,109.067,1498.09,115.633,1498.09,118.917L1498.09,122.2"></path><path marker-end="url(#mermaidExample_flowchart-pointEnd)" style="fill:none;" class="edge-thickness-normal edge-pattern-solid flowchart-link LS-Initial LE-D2R4" id="L-Initial-D2R4-0" d="M963.916,18.332L1098.508,26.631C1233.101,34.929,1502.285,51.527,1636.877,65.555C1771.47,79.583,1771.47,91.042,1771.47,100.054C1771.47,109.067,1771.47,115.633,1771.47,118.917L1771.47,122.2"></path><path marker-end="url(#mermaidExample_flowchart-pointEnd)" style="fill:none;" class="edge-thickness-normal edge-pattern-solid flowchart-link LS-D2R1 LE-D3R1" id="L-D2R1-D3R1-0" d="M99.878,160.657L91.991,164.923C84.103,169.188,68.328,177.719,60.441,187.714C52.554,197.708,52.554,209.167,75.918,220.625C99.283,232.083,146.012,243.542,169.377,252.554C192.741,261.567,192.741,268.133,192.741,271.417L192.741,274.7"></path><path marker-end="url(#mermaidExample_flowchart-pointEnd)" style="fill:none;" class="edge-thickness-normal edge-pattern-solid flowchart-link LS-D2R1 LE-D3R2" id="L-D2R1-D3R2-0" d="M126.681,161.25L125.865,165.417C125.05,169.583,123.418,177.917,122.602,187.813C121.786,197.708,121.786,209.167,155.563,220.625C189.34,232.083,256.894,243.542,290.671,252.554C324.448,261.567,324.448,268.133,324.448,271.417L324.448,274.7"></path><path marker-end="url(#mermaidExample_flowchart-pointEnd)" style="fill:none;" class="edge-thickness-normal edge-pattern-solid flowchart-link LS-D2R2 LE-D3R3" id="L-D2R2-D3R3-0" d="M771.256,148.047L718.739,154.414C666.222,160.781,561.189,173.516,508.672,185.612C456.155,197.708,456.155,209.167,456.155,220.625C456.155,232.083,456.155,243.542,456.155,252.554C456.155,261.567,456.155,268.133,456.155,271.417L456.155,274.7"></path><path marker-end="url(#mermaidExample_flowchart-pointEnd)" style="fill:none;" class="edge-thickness-normal edge-pattern-solid flowchart-link LS-D2R2 LE-D3R4" id="L-D2R2-D3R4-0" d="M831.826,150.744L859.965,156.662C888.105,162.579,944.383,174.415,972.523,186.061C1000.662,197.708,1000.662,209.167,1000.662,220.625C1000.662,232.083,1000.662,243.542,1000.662,252.554C1000.662,261.567,1000.662,268.133,1000.662,271.417L1000.662,274.7"></path><path marker-end="url(#mermaidExample_flowchart-pointEnd)" style="fill:none;" class="edge-thickness-normal edge-pattern-solid flowchart-link LS-D2R3 LE-D3R5" id="L-D2R3-D3R5-0" d="M1467.805,156.314L1455.149,161.304C1442.493,166.293,1417.182,176.271,1404.526,186.99C1391.87,197.708,1391.87,209.167,1356.006,220.625C1320.142,232.083,1248.414,243.542,1212.55,252.554C1176.685,261.567,1176.685,268.133,1176.685,271.417L1176.685,274.7"></path><path marker-end="url(#mermaidExample_flowchart-pointEnd)" style="fill:none;" class="edge-thickness-normal edge-pattern-solid flowchart-link LS-D2R3 LE-D3R6" id="L-D2R3-D3R6-0" d="M1493.949,161.25L1492.927,165.417C1491.905,169.583,1489.86,177.917,1488.838,187.813C1487.815,197.708,1487.815,209.167,1459.085,220.625C1430.355,232.083,1372.895,243.542,1344.165,252.554C1315.435,261.567,1315.435,268.133,1315.435,271.417L1315.435,274.7"></path><path marker-end="url(#mermaidExample_flowchart-pointEnd)" style="fill:none;" class="edge-thickness-normal edge-pattern-solid flowchart-link LS-D2R4 LE-D3R7" id="L-D2R4-D3R7-0" d="M1741.185,151.511L1716.614,157.301C1692.043,163.091,1642.902,174.67,1618.331,186.189C1593.761,197.708,1593.761,209.167,1570.498,220.625C1547.236,232.083,1500.711,243.542,1477.448,252.554C1454.185,261.567,1454.185,268.133,1454.185,271.417L1454.185,274.7"></path><path marker-end="url(#mermaidExample_flowchart-pointEnd)" style="fill:none;" class="edge-thickness-normal edge-pattern-solid flowchart-link LS-D2R4 LE-D3R8" id="L-D2R4-D3R8-0" d="M1764.101,161.25L1762.282,165.417C1760.462,169.583,1756.823,177.917,1755.004,187.813C1753.185,197.708,1753.185,209.167,1730.893,220.625C1708.601,232.083,1664.017,243.542,1641.725,252.554C1619.434,261.567,1619.434,268.133,1619.434,271.417L1619.434,274.7"></path><path marker-end="url(#mermaidExample_flowchart-pointEnd)" style="fill:none;" class="edge-thickness-normal edge-pattern-solid flowchart-link LS-D3R1 LE-D4R1" id="L-D3R1-D4R1-0" d="M185.408,313.75L183.597,317.917C181.786,322.083,178.164,330.417,176.354,340.313C174.543,350.208,174.543,361.667,206.635,373.125C238.726,384.583,302.909,396.042,335.001,405.054C367.093,414.067,367.093,420.633,367.093,423.917L367.093,427.2"></path><path marker-end="url(#mermaidExample_flowchart-pointEnd)" style="fill:none;" class="edge-thickness-normal edge-pattern-solid flowchart-link LS-D3R2 LE-D4R2" id="L-D3R2-D4R2-0" d="M306.663,313.75L302.272,317.917C297.88,322.083,289.097,330.417,284.706,340.313C280.314,350.208,280.314,361.667,317.902,373.125C355.491,384.583,430.667,396.042,468.255,405.054C505.843,414.067,505.843,420.633,505.843,423.917L505.843,427.2"></path><path marker-end="url(#mermaidExample_flowchart-pointEnd)" style="fill:none;" class="edge-thickness-normal edge-pattern-solid flowchart-link LS-D3R3 LE-D4R3" id="L-D3R3-D4R3-0" d="M438.37,313.75L433.979,317.917C429.587,322.083,420.804,330.417,416.413,340.313C412.021,350.208,412.021,361.667,450.783,373.125C489.545,384.583,567.069,396.042,605.831,405.054C644.593,414.067,644.593,420.633,644.593,423.917L644.593,427.2"></path><path marker-end="url(#mermaidExample_flowchart-pointEnd)" style="fill:none;" class="edge-thickness-normal edge-pattern-solid flowchart-link LS-D3R4 LE-D4R4" id="L-D3R4-D4R4-0" d="M963.244,304.085L933.261,309.863C903.277,315.64,843.31,327.195,813.326,338.702C783.343,350.208,783.343,361.667,783.343,373.125C783.343,384.583,783.343,396.042,783.343,405.054C783.343,414.067,783.343,420.633,783.343,423.917L783.343,427.2"></path><path marker-end="url(#mermaidExample_flowchart-pointEnd)" style="fill:none;" class="edge-thickness-normal edge-pattern-solid flowchart-link LS-D3R5 LE-D4R5" id="L-D3R5-D4R5-0" d="M1169.352,313.75L1167.541,317.917C1165.73,322.083,1162.109,330.417,1160.298,340.313C1158.487,350.208,1158.487,361.667,1119.088,373.125C1079.689,384.583,1000.891,396.042,961.492,405.054C922.093,414.067,922.093,420.633,922.093,423.917L922.093,427.2"></path><path marker-end="url(#mermaidExample_flowchart-pointEnd)" style="fill:none;" class="edge-thickness-normal edge-pattern-solid flowchart-link LS-D3R6 LE-D4R6" id="L-D3R6-D4R6-0" d="M1308.102,313.75L1306.291,317.917C1304.48,322.083,1300.859,330.417,1299.048,340.313C1297.237,350.208,1297.237,361.667,1257.838,373.125C1218.439,384.583,1139.641,396.042,1100.242,405.054C1060.843,414.067,1060.843,420.633,1060.843,423.917L1060.843,427.2"></path><path marker-end="url(#mermaidExample_flowchart-pointEnd)" style="fill:none;" class="edge-thickness-normal edge-pattern-solid flowchart-link LS-D3R7 LE-D4R7" id="L-D3R7-D4R7-0" d="M1446.852,313.75L1445.041,317.917C1443.23,322.083,1439.609,330.417,1437.798,340.313C1435.987,350.208,1435.987,361.667,1396.588,373.125C1357.189,384.583,1278.391,396.042,1238.992,405.054C1199.593,414.067,1199.593,420.633,1199.593,423.917L1199.593,427.2"></path><path marker-end="url(#mermaidExample_flowchart-pointEnd)" style="fill:none;" class="edge-thickness-normal edge-pattern-solid flowchart-link LS-D3R8 LE-D4R8" id="L-D3R8-D4R8-0" d="M1601.422,313.75L1596.974,317.917C1592.527,322.083,1583.632,330.417,1579.185,340.313C1574.737,350.208,1574.737,361.667,1535.338,373.125C1495.939,384.583,1417.141,396.042,1377.742,405.054C1338.343,414.067,1338.343,420.633,1338.343,423.917L1338.343,427.2"></path><path marker-end="url(#mermaidExample_flowchart-pointEnd)" style="fill:none;" class="edge-thickness-normal edge-pattern-solid flowchart-link LS-D2R1 LE-FinalResult" id="L-D2R1-FinalResult-0" d="M141.419,161.25L144.242,165.417C147.065,169.583,152.71,177.917,155.533,187.813C158.356,197.708,158.356,209.167,142.773,220.625C127.189,232.083,96.022,243.542,80.439,256.25C64.855,268.958,64.855,282.917,64.855,296.875C64.855,310.833,64.855,324.792,64.855,337.5C64.855,350.208,64.855,361.667,64.855,373.125C64.855,384.583,64.855,396.042,64.855,408.75C64.855,421.458,64.855,435.417,64.855,449.375C64.855,463.333,64.855,477.292,64.855,488.438C64.855,499.583,64.855,507.917,205.953,518.216C347.05,528.515,629.245,540.779,770.343,546.911L911.44,553.044"></path><path marker-end="url(#mermaidExample_flowchart-pointEnd)" style="fill:none;" class="edge-thickness-normal edge-pattern-solid flowchart-link LS-D2R2 LE-FinalResult" id="L-D2R2-FinalResult-0" d="M831.826,146.665L919.072,153.263C1006.317,159.86,1180.809,173.055,1268.054,185.382C1355.3,197.708,1355.3,209.167,1425.305,220.625C1495.31,232.083,1635.32,243.542,1705.325,256.25C1775.33,268.958,1775.33,282.917,1775.33,296.875C1775.33,310.833,1775.33,324.792,1775.33,337.5C1775.33,350.208,1775.33,361.667,1775.33,373.125C1775.33,384.583,1775.33,396.042,1775.33,408.75C1775.33,421.458,1775.33,435.417,1775.33,449.375C1775.33,463.333,1775.33,477.292,1775.33,488.438C1775.33,499.583,1775.33,507.917,1670.321,517.97C1565.312,528.024,1355.295,539.797,1250.286,545.684L1145.277,551.571"></path><path marker-end="url(#mermaidExample_flowchart-pointEnd)" style="fill:none;" class="edge-thickness-normal edge-pattern-solid flowchart-link LS-D2R3 LE-FinalResult" id="L-D2R3-FinalResult-0" d="M1521.906,161.25L1527.787,165.417C1533.668,169.583,1545.429,177.917,1551.31,187.813C1557.19,197.708,1557.19,209.167,1604.379,220.625C1651.567,232.083,1745.944,243.542,1793.133,256.25C1840.321,268.958,1840.321,282.917,1840.321,296.875C1840.321,310.833,1840.321,324.792,1840.321,337.5C1840.321,350.208,1840.321,361.667,1840.321,373.125C1840.321,384.583,1840.321,396.042,1840.321,408.75C1840.321,421.458,1840.321,435.417,1840.321,449.375C1840.321,463.333,1840.321,477.292,1840.321,488.438C1840.321,499.583,1840.321,507.917,1724.481,518.058C1608.64,528.198,1376.959,540.147,1261.119,546.121L1145.278,552.095"></path><path marker-end="url(#mermaidExample_flowchart-pointEnd)" style="fill:none;" class="edge-thickness-normal edge-pattern-solid flowchart-link LS-D2R4 LE-FinalResult" id="L-D2R4-FinalResult-0" d="M1801.755,158.648L1811.516,163.248C1821.277,167.849,1840.799,177.049,1850.56,187.379C1860.321,197.708,1860.321,209.167,1860.321,220.625C1860.321,232.083,1860.321,243.542,1860.321,256.25C1860.321,268.958,1860.321,282.917,1860.321,296.875C1860.321,310.833,1860.321,324.792,1860.321,337.5C1860.321,350.208,1860.321,361.667,1860.321,373.125C1860.321,384.583,1860.321,396.042,1860.321,408.75C1860.321,421.458,1860.321,435.417,1860.321,449.375C1860.321,463.333,1860.321,477.292,1860.321,488.438C1860.321,499.583,1860.321,507.917,1741.147,518.082C1621.974,528.247,1383.626,540.243,1264.452,546.242L1145.279,552.24"></path><path marker-end="url(#mermaidExample_flowchart-pointEnd)" style="fill:none;" class="edge-thickness-normal edge-pattern-solid flowchart-link LS-D3R1 LE-FinalResult" id="L-D3R1-FinalResult-0" d="M213.365,313.75L218.457,317.917C223.549,322.083,233.734,330.417,238.826,340.313C243.918,350.208,243.918,361.667,223.774,373.125C203.63,384.583,163.342,396.042,143.198,408.75C123.054,421.458,123.054,435.417,123.054,449.375C123.054,463.333,123.054,477.292,123.054,488.438C123.054,499.583,123.054,507.917,254.452,518.161C385.85,528.406,648.645,540.561,780.043,546.639L911.441,552.717"></path><path marker-end="url(#mermaidExample_flowchart-pointEnd)" style="fill:none;" class="edge-thickness-normal edge-pattern-solid flowchart-link LS-D3R2 LE-FinalResult" id="L-D3R2-FinalResult-0" d="M345.072,313.75L350.164,317.917C355.256,322.083,365.441,330.417,370.533,340.313C375.625,350.208,375.625,361.667,345.585,373.125C315.545,384.583,255.465,396.042,225.426,408.75C195.386,421.458,195.386,435.417,195.386,449.375C195.386,463.333,195.386,477.292,195.386,488.438C195.386,499.583,195.386,507.917,314.728,518.083C434.071,528.249,672.757,540.248,792.099,546.248L911.442,552.247"></path><path marker-end="url(#mermaidExample_flowchart-pointEnd)" style="fill:none;" class="edge-thickness-normal edge-pattern-solid flowchart-link LS-D3R3 LE-FinalResult" id="L-D3R3-FinalResult-0" d="M475.481,313.75L480.253,317.917C485.025,322.083,494.569,330.417,499.34,340.313C504.112,350.208,504.112,361.667,464.713,373.125C425.314,384.583,346.516,396.042,307.117,408.75C267.718,421.458,267.718,435.417,267.718,449.375C267.718,463.333,267.718,477.292,267.718,488.438C267.718,499.583,267.718,507.917,375.005,517.99C482.293,528.063,696.868,539.876,804.156,545.782L911.443,551.688"></path><path marker-end="url(#mermaidExample_flowchart-pointEnd)" style="fill:none;" class="edge-thickness-normal edge-pattern-solid flowchart-link LS-D3R4 LE-FinalResult" id="L-D3R4-FinalResult-0" d="M1036.306,313.75L1045.107,317.917C1053.908,322.083,1071.51,330.417,1080.311,340.313C1089.112,350.208,1089.112,361.667,1147.213,373.125C1205.314,384.583,1321.516,396.042,1379.617,408.75C1437.718,421.458,1437.718,435.417,1437.718,449.375C1437.718,463.333,1437.718,477.292,1437.718,488.438C1437.718,499.583,1437.718,507.917,1388.974,517.07C1340.231,526.222,1242.744,536.195,1194.001,541.181L1145.258,546.167"></path><path marker-end="url(#mermaidExample_flowchart-pointEnd)" style="fill:none;" class="edge-thickness-normal edge-pattern-solid flowchart-link LS-D3R5 LE-FinalResult" id="L-D3R5-FinalResult-0" d="M1197.309,313.75L1202.401,317.917C1207.493,322.083,1217.678,330.417,1222.77,340.313C1227.862,350.208,1227.862,361.667,1274.893,373.125C1321.925,384.583,1415.987,396.042,1463.018,408.75C1510.05,421.458,1510.05,435.417,1510.05,449.375C1510.05,463.333,1510.05,477.292,1510.05,488.438C1510.05,499.583,1510.05,507.917,1449.252,517.369C1388.455,526.821,1266.86,537.391,1206.063,542.677L1145.265,547.962"></path><path marker-end="url(#mermaidExample_flowchart-pointEnd)" style="fill:none;" class="edge-thickness-normal edge-pattern-solid flowchart-link LS-D3R6 LE-FinalResult" id="L-D3R6-FinalResult-0" d="M1336.059,313.75L1341.151,317.917C1346.243,322.083,1356.428,330.417,1361.52,340.313C1366.612,350.208,1366.612,361.667,1402.574,373.125C1438.535,384.583,1510.459,396.042,1546.42,408.75C1582.382,421.458,1582.382,435.417,1582.382,449.375C1582.382,463.333,1582.382,477.292,1582.382,488.438C1582.382,499.583,1582.382,507.917,1509.53,517.59C1436.678,527.263,1290.974,538.276,1218.122,543.782L1145.27,549.289"></path><path marker-end="url(#mermaidExample_flowchart-pointEnd)" style="fill:none;" class="edge-thickness-normal edge-pattern-solid flowchart-link LS-D3R7 LE-FinalResult" id="L-D3R7-FinalResult-0" d="M1474.809,313.75L1479.901,317.917C1484.993,322.083,1495.178,330.417,1500.27,340.313C1505.362,350.208,1505.362,361.667,1530.254,373.125C1555.146,384.583,1604.93,396.042,1629.822,408.75C1654.714,421.458,1654.714,435.417,1654.714,449.375C1654.714,463.333,1654.714,477.292,1654.714,488.438C1654.714,499.583,1654.714,507.917,1569.807,517.76C1484.9,527.603,1315.087,538.956,1230.18,544.632L1145.273,550.309"></path><path marker-end="url(#mermaidExample_flowchart-pointEnd)" style="fill:none;" class="edge-thickness-normal edge-pattern-solid flowchart-link LS-D3R8 LE-FinalResult" id="L-D3R8-FinalResult-0" d="M1655.576,313.75L1664.5,317.917C1673.424,322.083,1691.273,330.417,1700.197,340.313C1709.121,350.208,1709.121,361.667,1709.121,373.125C1709.121,384.583,1709.121,396.042,1709.121,408.75C1709.121,421.458,1709.121,435.417,1709.121,449.375C1709.121,463.333,1709.121,477.292,1709.121,488.438C1709.121,499.583,1709.121,507.917,1615.147,517.864C1521.172,527.811,1333.224,539.372,1239.25,545.153L1145.275,550.933"></path><path marker-end="url(#mermaidExample_flowchart-pointEnd)" style="fill:none;" class="edge-thickness-normal edge-pattern-solid flowchart-link LS-D4R1 LE-FinalResult" id="L-D4R1-FinalResult-0" d="M367.093,466.25L367.093,470.417C367.093,474.583,367.093,482.917,367.093,491.25C367.093,499.583,367.093,507.917,457.818,517.829C548.544,527.74,729.995,539.231,820.721,544.976L911.446,550.721"></path><path marker-end="url(#mermaidExample_flowchart-pointEnd)" style="fill:none;" class="edge-thickness-normal edge-pattern-solid flowchart-link LS-D4R2 LE-FinalResult" id="L-D4R2-FinalResult-0" d="M505.843,466.25L505.843,470.417C505.843,474.583,505.843,482.917,505.843,491.25C505.843,499.583,505.843,507.917,573.444,517.501C641.046,527.085,776.249,537.921,843.851,543.338L911.452,548.756"></path><path marker-end="url(#mermaidExample_flowchart-pointEnd)" style="fill:none;" class="edge-thickness-normal edge-pattern-solid flowchart-link LS-D4R3 LE-FinalResult" id="L-D4R3-FinalResult-0" d="M644.593,466.25L644.593,470.417C644.593,474.583,644.593,482.917,644.593,491.25C644.593,499.583,644.593,507.917,689.072,516.937C733.551,525.957,822.509,535.663,866.988,540.517L911.467,545.37"></path><path marker-end="url(#mermaidExample_flowchart-pointEnd)" style="fill:none;" class="edge-thickness-normal edge-pattern-solid flowchart-link LS-D4R4 LE-FinalResult" id="L-D4R4-FinalResult-0" d="M783.343,466.25L783.343,470.417C783.343,474.583,783.343,482.917,783.343,491.25C783.343,499.583,783.343,507.917,806.852,516.101C830.361,524.286,877.379,532.321,900.889,536.339L924.398,540.357"></path><path marker-end="url(#mermaidExample_flowchart-pointEnd)" style="fill:none;" class="edge-thickness-normal edge-pattern-solid flowchart-link LS-D4R5 LE-FinalResult" id="L-D4R5-FinalResult-0" d="M922.093,466.25L922.093,470.417C922.093,474.583,922.093,482.917,922.093,491.25C922.093,499.583,922.093,507.917,931.845,515.926C941.597,523.936,961.101,531.621,970.853,535.464L980.605,539.307"></path><path marker-end="url(#mermaidExample_flowchart-pointEnd)" style="fill:none;" class="edge-thickness-normal edge-pattern-solid flowchart-link LS-D4R6 LE-FinalResult" id="L-D4R6-FinalResult-0" d="M1060.843,466.25L1060.843,470.417C1060.843,474.583,1060.843,482.917,1060.843,491.25C1060.843,499.583,1060.843,507.917,1058.152,515.552C1055.461,523.187,1050.08,530.125,1047.389,533.594L1044.699,537.062"></path><path marker-end="url(#mermaidExample_flowchart-pointEnd)" style="fill:none;" class="edge-thickness-normal edge-pattern-solid flowchart-link LS-D4R7 LE-FinalResult" id="L-D4R7-FinalResult-0" d="M1199.593,466.25L1199.593,470.417C1199.593,474.583,1199.593,482.917,1199.593,491.25C1199.593,499.583,1199.593,507.917,1183.413,516.04C1167.233,524.164,1134.873,532.077,1118.693,536.034L1102.513,539.991"></path><path marker-end="url(#mermaidExample_flowchart-pointEnd)" style="fill:none;" class="edge-thickness-normal edge-pattern-solid flowchart-link LS-D4R8 LE-FinalResult" id="L-D4R8-FinalResult-0" d="M1338.343,466.25L1338.343,470.417C1338.343,474.583,1338.343,482.917,1338.343,491.25C1338.343,499.583,1338.343,507.917,1306.159,516.431C1273.974,524.945,1209.606,533.641,1177.422,537.989L1145.238,542.336"></path></g><g class="edgeLabels"><g transform="translate(129.98539447784424, 68.125)" class="edgeLabel"><g transform="translate(-16.570301055908203, -9.375)" class="label"><rect height="18.83540153503418" width="33.176700592041016" ry="0" rx="0"></rect><text style=""><tspan class="row" x="0" dy="1em" xml:space="preserve">幅=4</tspan></text></g></g><g transform="translate(801.5409755706787, 68.125)" class="edgeLabel"><g transform="translate(-16.570301055908203, -9.375)" class="label"><rect height="18.83540153503418" width="33.176700592041016" ry="0" rx="0"></rect><text style=""><tspan class="row" x="0" dy="1em" xml:space="preserve">幅=4</tspan></text></g></g><g transform="translate(1498.0897951126099, 68.125)" class="edgeLabel"><g transform="translate(-16.570301055908203, -9.375)" class="label"><rect height="18.83540153503418" width="33.176700592041016" ry="0" rx="0"></rect><text style=""><tspan class="row" x="0" dy="1em" xml:space="preserve">幅=4</tspan></text></g></g><g transform="translate(1771.4696550369263, 68.125)" class="edgeLabel"><g transform="translate(-16.570301055908203, -9.375)" class="label"><rect height="18.83540153503418" width="33.176700592041016" ry="0" rx="0"></rect><text style=""><tspan class="row" x="0" dy="1em" xml:space="preserve">幅=4</tspan></text></g></g><g transform="translate(52.5537109375, 220.625)" class="edgeLabel"><g transform="translate(-16.570301055908203, -9.375)" class="label"><rect height="18.83540153503418" width="33.176700592041016" ry="0" rx="0"></rect><text style=""><tspan class="row" x="0" dy="1em" xml:space="preserve">幅=2</tspan></text></g></g><g transform="translate(121.78617000579834, 220.625)" class="edgeLabel"><g transform="translate(-16.570301055908203, -9.375)" class="label"><rect height="18.83540153503418" width="33.176700592041016" ry="0" rx="0"></rect><text style=""><tspan class="row" x="0" dy="1em" xml:space="preserve">幅=2</tspan></text></g></g><g transform="translate(456.1552333831787, 220.625)" class="edgeLabel"><g transform="translate(-16.570301055908203, -9.375)" class="label"><rect height="18.83540153503418" width="33.176700592041016" ry="0" rx="0"></rect><text style=""><tspan class="row" x="0" dy="1em" xml:space="preserve">幅=2</tspan></text></g></g><g transform="translate(1000.6621408462524, 220.625)" class="edgeLabel"><g transform="translate(-16.570301055908203, -9.375)" class="label"><rect height="18.83540153503418" width="33.176700592041016" ry="0" rx="0"></rect><text style=""><tspan class="row" x="0" dy="1em" xml:space="preserve">幅=2</tspan></text></g></g><g transform="translate(1391.8700742721558, 220.625)" class="edgeLabel"><g transform="translate(-16.570301055908203, -9.375)" class="label"><rect height="18.83540153503418" width="33.176700592041016" ry="0" rx="0"></rect><text style=""><tspan class="row" x="0" dy="1em" xml:space="preserve">幅=2</tspan></text></g></g><g transform="translate(1487.815375328064, 220.625)" class="edgeLabel"><g transform="translate(-16.570301055908203, -9.375)" class="label"><rect height="18.83540153503418" width="33.176700592041016" ry="0" rx="0"></rect><text style=""><tspan class="row" x="0" dy="1em" xml:space="preserve">幅=2</tspan></text></g></g><g transform="translate(1593.7606763839722, 220.625)" class="edgeLabel"><g transform="translate(-16.570301055908203, -9.375)" class="label"><rect height="18.83540153503418" width="33.176700592041016" ry="0" rx="0"></rect><text style=""><tspan class="row" x="0" dy="1em" xml:space="preserve">幅=2</tspan></text></g></g><g transform="translate(1753.1845045089722, 220.625)" class="edgeLabel"><g transform="translate(-16.570301055908203, -9.375)" class="label"><rect height="18.83540153503418" width="33.176700592041016" ry="0" rx="0"></rect><text style=""><tspan class="row" x="0" dy="1em" xml:space="preserve">幅=2</tspan></text></g></g><g transform="translate(174.5429515838623, 373.125)" class="edgeLabel"><g transform="translate(-16.396484375, -9.375)" class="label"><rect height="18.83540153503418" width="32.785369873046875" ry="0" rx="0"></rect><text style=""><tspan class="row" x="0" dy="1em" xml:space="preserve">幅=1</tspan></text></g></g><g transform="translate(280.3144359588623, 373.125)" class="edgeLabel"><g transform="translate(-16.396484375, -9.375)" class="label"><rect height="18.83540153503418" width="32.785369873046875" ry="0" rx="0"></rect><text style=""><tspan class="row" x="0" dy="1em" xml:space="preserve">幅=1</tspan></text></g></g><g transform="translate(412.0214557647705, 373.125)" class="edgeLabel"><g transform="translate(-16.396484375, -9.375)" class="label"><rect height="18.83540153503418" width="32.785369873046875" ry="0" rx="0"></rect><text style=""><tspan class="row" x="0" dy="1em" xml:space="preserve">幅=1</tspan></text></g></g><g transform="translate(783.3427333831787, 373.125)" class="edgeLabel"><g transform="translate(-16.396484375, -9.375)" class="label"><rect height="18.83540153503418" width="32.785369873046875" ry="0" rx="0"></rect><text style=""><tspan class="row" x="0" dy="1em" xml:space="preserve">幅=1</tspan></text></g></g><g transform="translate(1158.4872245788574, 373.125)" class="edgeLabel"><g transform="translate(-16.396484375, -9.375)" class="label"><rect height="18.83540153503418" width="32.785369873046875" ry="0" rx="0"></rect><text style=""><tspan class="row" x="0" dy="1em" xml:space="preserve">幅=1</tspan></text></g></g><g transform="translate(1297.2372245788574, 373.125)" class="edgeLabel"><g transform="translate(-16.396484375, -9.375)" class="label"><rect height="18.83540153503418" width="32.785369873046875" ry="0" rx="0"></rect><text style=""><tspan class="row" x="0" dy="1em" xml:space="preserve">幅=1</tspan></text></g></g><g transform="translate(1435.9872245788574, 373.125)" class="edgeLabel"><g transform="translate(-16.396484375, -9.375)" class="label"><rect height="18.83540153503418" width="32.785369873046875" ry="0" rx="0"></rect><text style=""><tspan class="row" x="0" dy="1em" xml:space="preserve">幅=1</tspan></text></g></g><g transform="translate(1574.7372245788574, 373.125)" class="edgeLabel"><g transform="translate(-16.396484375, -9.375)" class="label"><rect height="18.83540153503418" width="32.785369873046875" ry="0" rx="0"></rect><text style=""><tspan class="row" x="0" dy="1em" xml:space="preserve">幅=1</tspan></text></g></g><g class="edgeLabel"><g transform="translate(0, 0)" class="label"><rect height="0" width="0" ry="0" rx="0"></rect><text style=""><tspan class="row" x="0" dy="1em" xml:space="preserve"></tspan></text></g></g><g class="edgeLabel"><g transform="translate(0, 0)" class="label"><rect height="0" width="0" ry="0" rx="0"></rect><text style=""><tspan class="row" x="0" dy="1em" xml:space="preserve"></tspan></text></g></g><g class="edgeLabel"><g transform="translate(0, 0)" class="label"><rect height="0" width="0" ry="0" rx="0"></rect><text style=""><tspan class="row" x="0" dy="1em" xml:space="preserve"></tspan></text></g></g><g class="edgeLabel"><g transform="translate(0, 0)" class="label"><rect height="0" width="0" ry="0" rx="0"></rect><text style=""><tspan class="row" x="0" dy="1em" xml:space="preserve"></tspan></text></g></g><g class="edgeLabel"><g transform="translate(0, 0)" class="label"><rect height="0" width="0" ry="0" rx="0"></rect><text style=""><tspan class="row" x="0" dy="1em" xml:space="preserve"></tspan></text></g></g><g class="edgeLabel"><g transform="translate(0, 0)" class="label"><rect height="0" width="0" ry="0" rx="0"></rect><text style=""><tspan class="row" x="0" dy="1em" xml:space="preserve"></tspan></text></g></g><g class="edgeLabel"><g transform="translate(0, 0)" class="label"><rect height="0" width="0" ry="0" rx="0"></rect><text style=""><tspan class="row" x="0" dy="1em" xml:space="preserve"></tspan></text></g></g><g class="edgeLabel"><g transform="translate(0, 0)" class="label"><rect height="0" width="0" ry="0" rx="0"></rect><text style=""><tspan class="row" x="0" dy="1em" xml:space="preserve"></tspan></text></g></g><g class="edgeLabel"><g transform="translate(0, 0)" class="label"><rect height="0" width="0" ry="0" rx="0"></rect><text style=""><tspan class="row" x="0" dy="1em" xml:space="preserve"></tspan></text></g></g><g class="edgeLabel"><g transform="translate(0, 0)" class="label"><rect height="0" width="0" ry="0" rx="0"></rect><text style=""><tspan class="row" x="0" dy="1em" xml:space="preserve"></tspan></text></g></g><g class="edgeLabel"><g transform="translate(0, 0)" class="label"><rect height="0" width="0" ry="0" rx="0"></rect><text style=""><tspan class="row" x="0" dy="1em" xml:space="preserve"></tspan></text></g></g><g class="edgeLabel"><g transform="translate(0, 0)" class="label"><rect height="0" width="0" ry="0" rx="0"></rect><text style=""><tspan class="row" x="0" dy="1em" xml:space="preserve"></tspan></text></g></g><g class="edgeLabel"><g transform="translate(0, 0)" class="label"><rect height="0" width="0" ry="0" rx="0"></rect><text style=""><tspan class="row" x="0" dy="1em" xml:space="preserve"></tspan></text></g></g><g class="edgeLabel"><g transform="translate(0, 0)" class="label"><rect height="0" width="0" ry="0" rx="0"></rect><text style=""><tspan class="row" x="0" dy="1em" xml:space="preserve"></tspan></text></g></g><g class="edgeLabel"><g transform="translate(0, 0)" class="label"><rect height="0" width="0" ry="0" rx="0"></rect><text style=""><tspan class="row" x="0" dy="1em" xml:space="preserve"></tspan></text></g></g><g class="edgeLabel"><g transform="translate(0, 0)" class="label"><rect height="0" width="0" ry="0" rx="0"></rect><text style=""><tspan class="row" x="0" dy="1em" xml:space="preserve"></tspan></text></g></g><g class="edgeLabel"><g transform="translate(0, 0)" class="label"><rect height="0" width="0" ry="0" rx="0"></rect><text style=""><tspan class="row" x="0" dy="1em" xml:space="preserve"></tspan></text></g></g><g class="edgeLabel"><g transform="translate(0, 0)" class="label"><rect height="0" width="0" ry="0" rx="0"></rect><text style=""><tspan class="row" x="0" dy="1em" xml:space="preserve"></tspan></text></g></g><g class="edgeLabel"><g transform="translate(0, 0)" class="label"><rect height="0" width="0" ry="0" rx="0"></rect><text style=""><tspan class="row" x="0" dy="1em" xml:space="preserve"></tspan></text></g></g><g class="edgeLabel"><g transform="translate(0, 0)" class="label"><rect height="0" width="0" ry="0" rx="0"></rect><text style=""><tspan class="row" x="0" dy="1em" xml:space="preserve"></tspan></text></g></g></g><g class="nodes"><g transform="translate(367.0927333831787, 449.375)" id="flowchart-D4R1-43" class="node default default flowchart-label"><rect height="33.75" width="88.75" y="-16.875" x="-44.375" ry="0" rx="0" style="" class="basic label-container"></rect><g transform="translate(0, -9.375)" style="" class="label"><rect></rect><text style=""><tspan class="row" x="0" dy="1em" xml:space="preserve">調査 1-1-1</tspan></text></g></g><g transform="translate(505.8427333831787, 449.375)" id="flowchart-D4R2-44" class="node default default flowchart-label"><rect height="33.75" width="88.75" y="-16.875" x="-44.375" ry="0" rx="0" style="" class="basic label-container"></rect><g transform="translate(0, -9.375)" style="" class="label"><rect></rect><text style=""><tspan class="row" x="0" dy="1em" xml:space="preserve">調査 1-2-1</tspan></text></g></g><g transform="translate(644.5927333831787, 449.375)" id="flowchart-D4R3-45" class="node default default flowchart-label"><rect height="33.75" width="88.75" y="-16.875" x="-44.375" ry="0" rx="0" style="" class="basic label-container"></rect><g transform="translate(0, -9.375)" style="" class="label"><rect></rect><text style=""><tspan class="row" x="0" dy="1em" xml:space="preserve">調査 2-1-1</tspan></text></g></g><g transform="translate(783.3427333831787, 449.375)" id="flowchart-D4R4-46" class="node default default flowchart-label"><rect height="33.75" width="88.75" y="-16.875" x="-44.375" ry="0" rx="0" style="" class="basic label-container"></rect><g transform="translate(0, -9.375)" style="" class="label"><rect></rect><text style=""><tspan class="row" x="0" dy="1em" xml:space="preserve">調査 2-2-1</tspan></text></g></g><g transform="translate(922.0927333831787, 449.375)" id="flowchart-D4R5-47" class="node default default flowchart-label"><rect height="33.75" width="88.75" y="-16.875" x="-44.375" ry="0" rx="0" style="" class="basic label-container"></rect><g transform="translate(0, -9.375)" style="" class="label"><rect></rect><text style=""><tspan class="row" x="0" dy="1em" xml:space="preserve">調査 3-1-1</tspan></text></g></g><g transform="translate(1060.8427333831787, 449.375)" id="flowchart-D4R6-48" class="node default default flowchart-label"><rect height="33.75" width="88.75" y="-16.875" x="-44.375" ry="0" rx="0" style="" class="basic label-container"></rect><g transform="translate(0, -9.375)" style="" class="label"><rect></rect><text style=""><tspan class="row" x="0" dy="1em" xml:space="preserve">調査 3-2-1</tspan></text></g></g><g transform="translate(1199.5927333831787, 449.375)" id="flowchart-D4R7-49" class="node default default flowchart-label"><rect height="33.75" width="88.75" y="-16.875" x="-44.375" ry="0" rx="0" style="" class="basic label-container"></rect><g transform="translate(0, -9.375)" style="" class="label"><rect></rect><text style=""><tspan class="row" x="0" dy="1em" xml:space="preserve">調査 4-1-1</tspan></text></g></g><g transform="translate(1338.3427333831787, 449.375)" id="flowchart-D4R8-50" class="node default default flowchart-label"><rect height="33.75" width="88.75" y="-16.875" x="-44.375" ry="0" rx="0" style="" class="basic label-container"></rect><g transform="translate(0, -9.375)" style="" class="label"><rect></rect><text style=""><tspan class="row" x="0" dy="1em" xml:space="preserve">調査 4-2-1</tspan></text></g></g><g transform="translate(192.7411937713623, 296.875)" id="flowchart-D3R1-35" class="node default default flowchart-label"><rect height="33.75" width="74.4921875" y="-16.875" x="-37.24609375" ry="0" rx="0" style="" class="basic label-container"></rect><g transform="translate(0, -9.375)" style="" class="label"><rect></rect><text style=""><tspan class="row" x="0" dy="1em" xml:space="preserve">調査 1-1</tspan></text></g></g><g transform="translate(324.4482135772705, 296.875)" id="flowchart-D3R2-36" class="node default default flowchart-label"><rect height="33.75" width="74.83589172363281" y="-16.875" x="-37.417945861816406" ry="0" rx="0" style="" class="basic label-container"></rect><g transform="translate(0, -9.375)" style="" class="label"><rect></rect><text style=""><tspan class="row" x="0" dy="1em" xml:space="preserve">調査 1-2</tspan></text></g></g><g transform="translate(456.1552333831787, 296.875)" id="flowchart-D3R3-37" class="node default default flowchart-label"><rect height="33.75" width="74.4921875" y="-16.875" x="-37.24609375" ry="0" rx="0" style="" class="basic label-container"></rect><g transform="translate(0, -9.375)" style="" class="label"><rect></rect><text style=""><tspan class="row" x="0" dy="1em" xml:space="preserve">調査 2-1</tspan></text></g></g><g transform="translate(1000.6621408462524, 296.875)" id="flowchart-D3R4-38" class="node default default flowchart-label"><rect height="33.75" width="74.83589172363281" y="-16.875" x="-37.417945861816406" ry="0" rx="0" style="" class="basic label-container"></rect><g transform="translate(0, -9.375)" style="" class="label"><rect></rect><text style=""><tspan class="row" x="0" dy="1em" xml:space="preserve">調査 2-2</tspan></text></g></g><g transform="translate(1176.6854667663574, 296.875)" id="flowchart-D3R5-39" class="node default default flowchart-label"><rect height="33.75" width="74.4921875" y="-16.875" x="-37.24609375" ry="0" rx="0" style="" class="basic label-container"></rect><g transform="translate(0, -9.375)" style="" class="label"><rect></rect><text style=""><tspan class="row" x="0" dy="1em" xml:space="preserve">調査 3-1</tspan></text></g></g><g transform="translate(1315.4354667663574, 296.875)" id="flowchart-D3R6-40" class="node default default flowchart-label"><rect height="33.75" width="74.83589172363281" y="-16.875" x="-37.417945861816406" ry="0" rx="0" style="" class="basic label-container"></rect><g transform="translate(0, -9.375)" style="" class="label"><rect></rect><text style=""><tspan class="row" x="0" dy="1em" xml:space="preserve">調査 3-2</tspan></text></g></g><g transform="translate(1454.1854667663574, 296.875)" id="flowchart-D3R7-41" class="node default default flowchart-label"><rect height="33.75" width="74.4921875" y="-16.875" x="-37.24609375" ry="0" rx="0" style="" class="basic label-container"></rect><g transform="translate(0, -9.375)" style="" class="label"><rect></rect><text style=""><tspan class="row" x="0" dy="1em" xml:space="preserve">調査 4-1</tspan></text></g></g><g transform="translate(1619.4335079193115, 296.875)" id="flowchart-D3R8-42" class="node default default flowchart-label"><rect height="33.75" width="74.83589172363281" y="-16.875" x="-37.417945861816406" ry="0" rx="0" style="" class="basic label-container"></rect><g transform="translate(0, -9.375)" style="" class="label"><rect></rect><text style=""><tspan class="row" x="0" dy="1em" xml:space="preserve">調査 4-2</tspan></text></g></g><g transform="translate(129.98539447784424, 144.375)" id="flowchart-D2R1-31" class="node default default flowchart-label"><rect height="33.75" width="60.21484375" y="-16.875" x="-30.107421875" ry="0" rx="0" style="" class="basic label-container"></rect><g transform="translate(0, -9.375)" style="" class="label"><rect></rect><text style=""><tspan class="row" x="0" dy="1em" xml:space="preserve">調査 1</tspan></text></g></g><g transform="translate(801.5409755706787, 144.375)" id="flowchart-D2R2-32" class="node default default flowchart-label"><rect height="33.75" width="60.57027816772461" y="-16.875" x="-30.285139083862305" ry="0" rx="0" style="" class="basic label-container"></rect><g transform="translate(0, -9.375)" style="" class="label"><rect></rect><text style=""><tspan class="row" x="0" dy="1em" xml:space="preserve">調査 2</tspan></text></g></g><g transform="translate(1498.0897951126099, 144.375)" id="flowchart-D2R3-33" class="node default default flowchart-label"><rect height="33.75" width="60.57027816772461" y="-16.875" x="-30.285139083862305" ry="0" rx="0" style="" class="basic label-container"></rect><g transform="translate(0, -9.375)" style="" class="label"><rect></rect><text style=""><tspan class="row" x="0" dy="1em" xml:space="preserve">調査 3</tspan></text></g></g><g transform="translate(1771.4696550369263, 144.375)" id="flowchart-D2R4-34" class="node default default flowchart-label"><rect height="33.75" width="60.57027816772461" y="-16.875" x="-30.285139083862305" ry="0" rx="0" style="" class="basic label-container"></rect><g transform="translate(0, -9.375)" style="" class="label"><rect></rect><text style=""><tspan class="row" x="0" dy="1em" xml:space="preserve">調査 4</tspan></text></g></g><g transform="translate(940.2909755706787, 16.875)" id="flowchart-Initial-30" class="node default default flowchart-label"><rect height="33.75" width="47.24998474121094" y="-16.875" x="-23.62499237060547" ry="0" rx="0" style="" class="basic label-container"></rect><g transform="translate(0, -9.375)" style="" class="label"><rect></rect><text style=""><tspan class="row" x="0" dy="1em" xml:space="preserve">質問</tspan></text></g></g><g transform="translate(1028.3603715896606, 558.125)" id="flowchart-FinalResult-92" class="node default default flowchart-label"><rect height="33.75" width="223.24981689453125" y="-16.875" x="-111.62490844726562" ry="0" rx="0" style="" class="basic label-container"></rect><g transform="translate(0, -9.375)" style="" class="label"><rect></rect><text style=""><tspan class="row" x="0" dy="1em" xml:space="preserve">最終結果統合・レポート作成</tspan></text></g></g></g></g></g></svg>